<?xml version="1.0" encoding="UTF-8"?>
<!-- Created with Inkscape (http://www.inkscape.org/) -->
<svg width="48" height="48" version="1.1" viewBox="0 0 48 48" xml:space="preserve" xmlns="http://www.w3.org/2000/svg" xmlns:xlink="http://www.w3.org/1999/xlink"><defs><linearGradient id="linearGradient163-0" x1="129.07" x2="105.75" y1="114.14" y2="38.635" gradientTransform="matrix(.59839 0 0 .59839 -35.995 -19.936)" gradientUnits="userSpaceOnUse"><stop stop-color="#59499b" offset="0"/><stop stop-color="#a762cb" offset=".25"/><stop stop-color="#ee9dec" offset=".5"/><stop stop-color="#ffcdf7" offset=".75"/><stop stop-color="#faf8fd" offset="1"/></linearGradient></defs><g transform="translate(-3.175 -6.3555)"><rect x="3.175" y="6.3555" width="48" height="48" rx="4" ry="4" fill="url(#linearGradient163-0)" stop-color="#000000" style="-inkscape-stroke:none;font-variation-settings:normal"/><path d="m27.175 33.356v-9" fill="none" stop-color="#000000" stroke="#172235" stroke-width="4" style="font-variation-settings:normal"/><path d="m31.516 33.356a4.341 4.341 0 0 1-4.341 4.341 4.341 4.341 0 0 1-4.341-4.341 4.341 4.341 0 0 1 4.341-4.341 4.341 4.341 0 0 1 4.341 4.341z" fill="#ccc" stroke="#172235" stroke-linecap="round" stroke-width="4"/><g fill="none" stroke="#172235"><path d="m8.175 38.356 3.8317-17" stop-color="#000000" stroke-linecap="round" stroke-linejoin="round" stroke-width="4" style="font-variation-settings:normal"/><path d="m46.53 38.284-4.1864-16.928" stop-color="#000000" stroke-linecap="round" stroke-linejoin="round" stroke-width="4" style="font-variation-settings:normal"/><path d="m5.175 20.356v2h44v-2z" stroke-width="4"/></g><path d="m27.175 9.3555c-5.7103 0-11.069 2.8592-12 9l4.8 6.4a4 4 26.565 0 0 3.2 1.6h8a4 4 153.43 0 0 3.2-1.6l4.8-6.4c-0.93079-6.1408-6.2897-9-12-9z" fill="#172235" stroke-linecap="round" stroke-width=".965"/><path d="m3.175 45.356v5a4 4 45 0 0 4 4h40a4 4 135 0 0 4-4v-5z" fill="#172235" style="-inkscape-stroke:none;font-variation-settings:normal"/></g></svg>
